<svg width="1366" height="237" viewBox="0 0 1366 237" fill="none" xmlns="http://www.w3.org/2000/svg">
<g filter="url(#filter0_d)">
<path d="M1343.04 208.891C1348.3 208.294 1353.48 207.474 1358.58 206.472C1358.54 205.813 1358.39 204.989 1358.16 203.957C1370.09 203.891 1365.01 195.518 1365.01 168C1365.01 144.087 1365.01 128.089 1365.01 108.873L1365.01 81.9999L1365.01 19.9999C1365.01 6.93654 1340.84 8.33662 1331.7 5.93659C1317.81 2.28748 1300.68 2.34228 1286.02 1.79318C1207 -1.16652 1127.67 4.14852 1048.64 3.81601C897.6 3.18061 746.58 2.55152 595.545 2.95579C484.98 3.25172 374.434 3.07148 263.868 2.60633C199.665 2.33623 135.063 0.718598 70.9134 2.95669C54.8412 3.51744 37.5767 3.72849 21.7041 5.77118C12.438 6.96365 1.52049 15.0095 0.850843 21.0079L0.85051 83.0079L0.849904 193.037C0.849904 193.037 4.18982 197.786 7.68083 197.637C15.685 197.294 25.3515 194.083 33.0239 193.037C73.7401 187.486 114.867 189.377 155.543 194.366C224.752 202.853 290.615 216.799 361.356 218.241C392.037 218.867 422.916 219.092 453.61 218.63C513.359 217.729 572.307 212.347 631.352 206.478C670.756 202.561 710.913 196.353 750.935 196.522C802.017 196.737 853.359 204.086 903.674 209.483C934.692 212.81 965.597 216.461 996.655 219.636C1052.73 225.368 1107.94 230.706 1164.85 227.432C1205.17 225.113 1247.27 221.174 1287.08 215.919C1305.82 213.445 1324.24 211.026 1343.04 208.891Z" fill="#0084D7"/>
</g>
<defs>
<filter id="filter0_d" x="-3.15015" y="0.893066" width="1377.24" height="235.538" filterUnits="userSpaceOnUse" color-interpolation-filters="sRGB">
<feFlood flood-opacity="0" result="BackgroundImageFix"/>
<feColorMatrix in="SourceAlpha" type="matrix" values="0 0 0 0 0 0 0 0 0 0 0 0 0 0 0 0 0 0 127 0"/>
<feOffset dy="4"/>
<feGaussianBlur stdDeviation="2"/>
<feColorMatrix type="matrix" values="0 0 0 0 0 0 0 0 0 0 0 0 0 0 0 0 0 0 0.25 0"/>
<feBlend mode="normal" in2="BackgroundImageFix" result="effect1_dropShadow"/>
<feBlend mode="normal" in="SourceGraphic" in2="effect1_dropShadow" result="shape"/>
</filter>
</defs>
</svg>
